<?xml version="1.0" standalone="no"?>
<!DOCTYPE svg PUBLIC "-//W3C//DTD SVG 20010904//EN"
 "http://www.w3.org/TR/2001/REC-SVG-20010904/DTD/svg10.dtd">
<svg xmlns="http://www.w3.org/2000/svg" viewBox="409.384 111.034 748.332 748.332" width="32" height="32" preserveAspectRatio="xMidYMid meet">

<g transform="translate(0.000000,1024.000000) scale(0.100000,-0.100000)"
fill="#1A2332" stroke="none">
<path d="M7605 8053 c-107 -6 -287 -34 -410 -63 -862 -206 -1581 -887 -1820
-1726 -137 -479 -136 -1031 1 -1513 84 -295 247 -628 417 -849 l41 -54 55 7
c165 20 641 141 966 246 655 211 1551 592 1760 749 134 100 208 256 269 570
45 226 76 267 273 367 63 31 116 60 118 64 3 3 -41 16 -96 28 -110 23 -118 26
-201 82 -90 62 -150 81 -248 81 -63 0 -99 -5 -141 -21 -60 -23 -178 -101 -218
-145 -31 -33 -37 -33 -45 5 -3 17 -24 69 -46 115 -47 102 -129 190 -235 251
-97 56 -754 333 -790 333 -16 0 150 -268 232 -375 28 -36 33 -47 18 -41 -112
47 -574 210 -580 204 -2 -2 20 -39 49 -83 60 -92 163 -191 271 -261 41 -27 75
-52 75 -56 0 -5 -10 -8 -22 -8 -31 0 -321 -77 -583 -154 -208 -61 -342 -93
-351 -83 -3 3 22 13 56 23 45 13 62 23 65 38 2 12 15 80 29 151 34 176 74 295
151 450 172 346 456 599 796 709 188 60 470 76 664 38 244 -49 462 -164 648
-341 187 -178 298 -359 408 -666 l57 -160 116 -34 116 -34 -38 -22 c-48 -28
-162 -104 -162 -110 0 -2 8 -34 17 -72 18 -73 25 -363 10 -415 -5 -21 -4 -28
6 -28 18 0 260 144 402 239 155 104 351 252 484 366 l113 97 -6 52 c-8 70 -67
283 -112 402 -148 400 -418 782 -742 1052 -291 243 -652 431 -990 516 -274 70
-548 95 -847 79z m-90 -2281 c-354 -114 -723 -242 -698 -242 17 0 141 11 275
25 321 32 572 55 606 55 15 0 -111 -36 -279 -79 -168 -43 -312 -81 -320 -84
-8 -3 145 -6 339 -6 l353 -1 26 -30 c60 -72 247 -178 323 -183 49 -3 64 7
-225 -162 -229 -134 -437 -247 -667 -361 -120 -59 -217 -109 -215 -110 3 -2
391 72 472 91 39 9 126 32 194 51 69 18 126 33 127 31 4 -4 -304 -165 -496
-259 -282 -137 -432 -200 -735 -305 -202 -70 -331 -100 -188 -44 38 15 376
167 390 176 2 1 -37 80 -85 176 -135 265 -202 491 -231 777 -12 112 -15 341
-5 389 7 37 -26 32 504 73 217 16 413 31 435 33 22 2 65 4 95 4 l55 1 -50 -16z"/>
<path d="M10109 7166 c-2 -3 -30 -6 -62 -7 -31 -1 -57 -5 -57 -9 0 -6 84 -151
107 -186 5 -7 53 -15 116 -18 217 -13 360 -58 460 -146 67 -60 99 -126 105
-220 8 -141 -42 -271 -178 -458 -277 -383 -822 -799 -1709 -1305 -731 -416
-1636 -777 -2424 -967 -567 -136 -974 -194 -1208 -170 -173 17 -267 54 -333
132 -115 133 -41 376 217 714 42 56 77 109 77 117 0 14 -56 156 -65 165 -20
20 -373 -321 -486 -468 -219 -285 -298 -460 -287 -639 9 -146 86 -249 241
-321 107 -49 184 -68 341 -80 231 -19 541 11 979 95 l147 29 48 -46 c26 -25
96 -82 155 -127 368 -275 772 -445 1217 -512 192 -29 559 -32 753 -5 206 28
410 81 597 155 523 208 931 598 1196 1146 182 375 284 787 310 1246 l7 127
102 86 c118 100 327 311 431 436 291 347 394 673 284 897 -107 216 -456 343
-944 343 -73 0 -135 -2 -137 -4z m-999 -2653 c-85 -160 -232 -344 -378 -473
-366 -324 -842 -444 -1288 -324 -50 13 -109 31 -130 40 l-38 16 65 23 c366
129 1112 456 1594 698 116 57 212 103 214 102 1 -2 -16 -39 -39 -82z"/>
</g>
</svg>
